<svg xmlns="http://www.w3.org/2000/svg" viewBox="0 0 1024 1024" role="img" aria-label="Moboard keyboard icon">
  <defs>
    <linearGradient id="appSurface" x1="144" y1="96" x2="880" y2="928" gradientUnits="userSpaceOnUse">
      <stop offset="0" stop-color="#181a22"/>
      <stop offset="0.56" stop-color="#0f1012"/>
      <stop offset="1" stop-color="#08090a"/>
    </linearGradient>
    <linearGradient id="primaryContainer" x1="226" y1="294" x2="812" y2="728" gradientUnits="userSpaceOnUse">
      <stop offset="0" stop-color="#6f79e8"/>
      <stop offset="1" stop-color="#4f5bcf"/>
    </linearGradient>
    <filter id="surfaceLift" x="-14%" y="-14%" width="128%" height="134%">
      <feDropShadow dx="0" dy="24" stdDeviation="20" flood-color="#000000" flood-opacity="0.34"/>
    </filter>
  </defs>

  <g transform="translate(512 512) scale(1.1) translate(-512 -512)">
  <rect x="72" y="72" width="880" height="880" rx="244" fill="url(#appSurface)"/>
  <rect x="92" y="92" width="840" height="840" rx="224" fill="none" stroke="#2e3035" stroke-width="12" opacity="0.72"/>
  <rect x="144" y="144" width="736" height="736" rx="184" fill="#121316"/>

  <g filter="url(#surfaceLift)">
    <rect x="184" y="318" width="656" height="388" rx="78" fill="url(#primaryContainer)"/>
    <rect x="208" y="342" width="608" height="340" rx="58" fill="#16171a" opacity="0.32"/>

    <g fill="#f7f8f8">
      <rect x="252" y="392" width="84" height="64" rx="18"/>
      <rect x="366" y="392" width="84" height="64" rx="18"/>
      <rect x="480" y="392" width="84" height="64" rx="18"/>
      <rect x="594" y="392" width="84" height="64" rx="18"/>
      <rect x="708" y="392" width="64" height="64" rx="18"/>

      <rect x="252" y="486" width="64" height="64" rx="18"/>
      <rect x="346" y="486" width="84" height="64" rx="18"/>
      <rect x="460" y="486" width="84" height="64" rx="18"/>
      <rect x="574" y="486" width="84" height="64" rx="18"/>
      <rect x="688" y="486" width="84" height="64" rx="18"/>

      <rect x="252" y="580" width="104" height="64" rx="18"/>
      <rect x="388" y="580" width="248" height="64" rx="22"/>
      <rect x="668" y="580" width="104" height="64" rx="18"/>
    </g>
  </g>
  </g>
</svg>
